{
  "accessors": [
    {
      "bufferView": 2,
      "componentType": 5126,
      "count": 197,
      "max": [
        -0.04330800101161003,
        0.34285399317741394,
        -0.14876100420951843
      ],
      "min": [
        -0.7220140099525452,
        -0.3358519971370697,
        -0.41131600737571716
      ],
      "type": "VEC3"
    },
    {
      "bufferView": 2,
      "byteOffset": 2364,
      "componentType": 5126,
      "count": 197,
      "max": [
        1.0,
        1.0,
        0.0
      ],
      "min": [
        -1.0,
        -1.0,
        -1.0
      ],
      "type": "VEC3"
    },
    {
      "bufferView": 1,
      "componentType": 5126,
      "count": 197,
      "max": [
        1.0,
        1.0
      ],
      "min": [
        0.0,
        1.0
      ],
      "type": "VEC2"
    },
    {
      "bufferView": 0,
      "componentType": 5125,
      "count": 666,
      "type": "SCALAR"
    },
    {
      "bufferView": 2,
      "byteOffset": 4728,
      "componentType": 5126,
      "count": 856,
      "max": [
        0.4349200129508972,
        0.8210809826850891,
        1.9016079902648926
      ],
      "min": [
        -1.200242042541504,
        -0.814079999923706,
        -0.41131600737571716
      ],
      "type": "VEC3"
    },
    {
      "bufferView": 2,
      "byteOffset": 15000,
      "componentType": 5126,
      "count": 856,
      "max": [
        0.9998538494110107,
        0.9998538494110107,
        1.0
      ],
      "min": [
        -0.9998538494110107,
        -0.9998538494110107,
        -0.7905300259590149
      ],
      "type": "VEC3"
    },
    {
      "bufferView": 1,
      "byteOffset": 1576,
      "componentType": 5126,
      "count": 856,
      "max": [
        1.0008690357208252,
        1.0
      ],
      "min": [
        -0.0008689999813213944,
        0.0
      ],
      "type": "VEC2"
    },
    {
      "bufferView": 0,
      "byteOffset": 2664,
      "componentType": 5125,
      "count": 4596,
      "type": "SCALAR"
    },
    {
      "bufferView": 2,
      "byteOffset": 25272,
      "componentType": 5126,
      "count": 7501,
      "max": [
        -0.018154999241232872,
        0.36702001094818115,
        -0.24404899775981903
      ],
      "min": [
        -0.7568600177764893,
        -0.372979998588562,
        -0.9168670177459717
      ],
      "type": "VEC3"
    },
    {
      "bufferView": 2,
      "byteOffset": 115284,
      "componentType": 5126,
      "count": 7501,
      "max": [
        0.9987642765045166,
        1.0,
        0.9973902106285095
      ],
      "min": [
        -0.998252272605896,
        -1.0,
        -0.9889876246452332
      ],
      "type": "VEC3"
    },
    {
      "bufferView": 1,
      "byteOffset": 8424,
      "componentType": 5126,
      "count": 7501,
      "max": [
        1.0,
        1.0
      ],
      "min": [
        0.0,
        0.0
      ],
      "type": "VEC2"
    },
    {
      "bufferView": 0,
      "byteOffset": 21048,
      "componentType": 5125,
      "count": 28074,
      "type": "SCALAR"
    },
    {
      "bufferView": 2,
      "byteOffset": 205296,
      "componentType": 5126,
      "count": 3606,
      "max": [
        0.04071100056171417,
        0.04002400115132332,
        1.2996560335159302
      ],
      "min": [
        -0.7906469702720642,
        -0.040716998279094696,
        -0.1626809984445572
      ],
      "type": "VEC3"
    },
    {
      "bufferView": 2,
      "byteOffset": 248568,
      "componentType": 5126,
      "count": 3606,
      "max": [
        1.0,
        1.0,
        1.0
      ],
      "min": [
        -1.0,
        -1.0,
        -1.0
      ],
      "type": "VEC3"
    },
    {
      "bufferView": 1,
      "byteOffset": 68432,
      "componentType": 5126,
      "count": 3606,
      "max": [
        1.0,
        1.0
      ],
      "min": [
        0.0,
        0.0
      ],
      "type": "VEC2"
    },
    {
      "bufferView": 0,
      "byteOffset": 133344,
      "componentType": 5125,
      "count": 15054,
      "type": "SCALAR"
    }
  ],
  "asset": {
    "extras": {
      "author": "fatihmcnn (https://sketchfab.com/fatihmcnn)",
      "license": "CC-BY-4.0 (http://creativecommons.org/licenses/by/4.0/)",
      "source": "https://sketchfab.com/3d-models/realistic-light-bulb-low-poly-d7544536348e48eda5c29870d1cf6b96",
      "title": "REALISTIC LIGHT BULB + Low poly"
    },
    "generator": "Sketchfab-12.67.0",
    "version": "2.0"
  },
  "bufferViews": [
    {
      "buffer": 0,
      "byteLength": 193560,
      "name": "floatBufferViews",
      "target": 34963
    },
    {
      "buffer": 0,
      "byteLength": 97280,
      "byteOffset": 193560,
      "byteStride": 8,
      "name": "floatBufferViews",
      "target": 34962
    },
    {
      "buffer": 0,
      "byteLength": 291840,
      "byteOffset": 290840,
      "byteStride": 12,
      "name": "floatBufferViews",
      "target": 34962
    }
  ],
  "buffers": [
    {
      "byteLength": 582680,
      "uri": "light_bulb.bin"
    }
  ],
  "extensionsUsed": [
    "KHR_materials_transmission"
  ],
  "materials": [
    {
      "alphaMode": "BLEND",
      "doubleSided": true,
      "extensions": {
        "KHR_materials_transmission": {
          "transmissionFactor": 0.8949270075211742
        }
      },
      "name": "GLASS",
      "pbrMetallicRoughness": {
        "baseColorFactor": [
          0.8,
          0.8,
          0.8,
          0.25
        ],
        "metallicFactor": 0.0,
        "roughnessFactor": 0.0
      }
    },
    {
      "doubleSided": true,
      "name": "METAL.001",
      "pbrMetallicRoughness": {
        "baseColorFactor": [
          0.8,
          0.8,
          0.8,
          1.0
        ],
        "roughnessFactor": 0.11723333880548918
      }
    },
    {
      "doubleSided": true,
      "name": "METAL_2",
      "pbrMetallicRoughness": {
        "baseColorFactor": [
          0.8,
          0.770255,
          0.74709,
          1.0
        ],
        "roughnessFactor": 0.117
      }
    }
  ],
  "meshes": [
    {
      "name": "Object_0",
      "primitives": [
        {
          "attributes": {
            "NORMAL": 1,
            "POSITION": 0,
            "TEXCOORD_0": 2
          },
          "indices": 3,
          "material": 2,
          "mode": 4
        }
      ]
    },
    {
      "name": "Object_1",
      "primitives": [
        {
          "attributes": {
            "NORMAL": 5,
            "POSITION": 4,
            "TEXCOORD_0": 6
          },
          "indices": 7,
          "material": 0,
          "mode": 4
        }
      ]
    },
    {
      "name": "Object_2",
      "primitives": [
        {
          "attributes": {
            "NORMAL": 9,
            "POSITION": 8,
            "TEXCOORD_0": 10
          },
          "indices": 11,
          "material": 1,
          "mode": 4
        }
      ]
    },
    {
      "name": "Object_3",
      "primitives": [
        {
          "attributes": {
            "NORMAL": 13,
            "POSITION": 12,
            "TEXCOORD_0": 14
          },
          "indices": 15,
          "material": 1,
          "mode": 4
        }
      ]
    }
  ],
  "nodes": [
    {
      "children": [
        1
      ],
      "matrix": [
        1.0,
        0.0,
        0.0,
        0.0,
        0.0,
        2.220446049250313e-16,
        -1.0,
        0.0,
        0.0,
        1.0,
        2.220446049250313e-16,
        0.0,
        0.0,
        0.0,
        0.0,
        1.0
      ],
      "name": "Sketchfab_model"
    },
    {
      "children": [
        2,
        3,
        4,
        5
      ],
      "name": "LIGHT BULB.obj.cleaner.materialmerger.gles"
    },
    {
      "mesh": 0,
      "name": "Object_2"
    },
    {
      "mesh": 1,
      "name": "Object_3"
    },
    {
      "mesh": 2,
      "name": "Object_4"
    },
    {
      "mesh": 3,
      "name": "Object_5"
    }
  ],
  "scene": 0,
  "scenes": [
    {
      "name": "Sketchfab_Scene",
      "nodes": [
        0
      ]
    }
  ]
}
